<svg xmlns="http://www.w3.org/2000/svg" width="1000px" viewBox="0 0 1440 320">
     <path fill="#ba5d2c" fill-opacity="1" d="M0,160L26.7,170.7C53.3,181,107,203,160,224C213.3,245,267,267,320,245.3C373.3,224,427,160,480,160C533.3,160,587,224,640,250.7C693.3,277,747,267,800,234.7C853.3,203,907,149,960,149.3C1013.3,149,1067,203,1120,213.3C1173.3,224,1227,192,1280,160C1333.3,128,1387,96,1413,80L1440,64L1440,0L1413.3,0C1386.7,0,1333,0,1280,0C1226.7,0,1173,0,1120,0C1066.7,0,1013,0,960,0C906.7,0,853,0,800,0C746.7,0,693,0,640,0C586.7,0,533,0,480,0C426.7,0,373,0,320,0C266.7,0,213,0,160,0C106.7,0,53,0,27,0L0,0Z"></path>
</svg>